HIERARCHY
ROOT Hips
{
	OFFSET 0.000000 0.000000 0.000000
	CHANNELS 6 Xposition Yposition Zposition Zrotation Yrotation Xrotation 
	JOINT LHipJoint
	{
		OFFSET 0.000000 0.000000 0.000000
		CHANNELS 3 Zrotation Yrotation Xrotation
		JOINT LeftUpLeg
		{
			OFFSET 1.363060 -1.794630 0.839290
			CHANNELS 3 Zrotation Yrotation Xrotation
			JOINT LeftLeg
			{
				OFFSET 2.448110 -6.726130 0.000000
				CHANNELS 3 Zrotation Yrotation Xrotation
				JOINT LeftFoot
				{
					OFFSET 2.562200 -7.039590 0.000000
					CHANNELS 3 Zrotation Yrotation Xrotation
					JOINT LeftToeBase
					{
						OFFSET 0.157640 -0.433110 2.322550
						CHANNELS 3 Zrotation Yrotation Xrotation
						End Site
						{
							OFFSET 0.000000 0.000000 0.000000
						}
					}
				}
			}
		}
	}
	JOINT RHipJoint
	{
		OFFSET 0.000000 0.000000 0.000000
		CHANNELS 3 Zrotation Yrotation Xrotation
		JOINT RightUpLeg
		{
			OFFSET -1.305520 -1.794630 0.839290
			CHANNELS 3 Zrotation Yrotation Xrotation
			JOINT RightLeg
			{
				OFFSET -2.542530 -6.985550 0.000000
				CHANNELS 3 Zrotation Yrotation Xrotation
				JOINT RightFoot
				{
					OFFSET -2.568260 -7.056230 0.000000
					CHANNELS 3 Zrotation Yrotation Xrotation
					JOINT RightToeBase
					{
						OFFSET -0.164730 -0.452590 2.363150
						CHANNELS 3 Zrotation Yrotation Xrotation
						End Site
						{
							OFFSET 0.000000 0.000000 0.000000
						}
					}
				}
			}
		}
	}
	JOINT LowerBack
	{
		OFFSET 0.000000 0.000000 0.000000
		CHANNELS 3 Zrotation Yrotation Xrotation
		JOINT Spine
		{
			OFFSET 0.028270 2.035590 -0.193380
			CHANNELS 3 Zrotation Yrotation Xrotation
			JOINT Spine1
			{
				OFFSET 0.056720 2.048850 -0.042750
				CHANNELS 3 Zrotation Yrotation Xrotation
				JOINT Neck
				{
					OFFSET 0.000000 0.000000 0.000000
					CHANNELS 3 Zrotation Yrotation Xrotation
					JOINT Neck1
					{
						OFFSET -0.054170 1.746240 0.172020
						CHANNELS 3 Zrotation Yrotation Xrotation
						JOINT Head
						{
							OFFSET 0.104070 1.761360 -0.123970
							CHANNELS 3 Zrotation Yrotation Xrotation
							End Site
							{
								OFFSET 0.000000 0.000000 0.000000
							}
						}
					}
				}
				JOINT LeftShoulder
				{
					OFFSET 0.000000 0.000000 0.000000
					CHANNELS 3 Zrotation Yrotation Xrotation
					JOINT LeftArm
					{
						OFFSET 3.362410 1.200890 -0.311210
						CHANNELS 3 Zrotation Yrotation Xrotation
						JOINT LeftForeArm
						{
							OFFSET 4.983000 -0.000000 -0.000000
							CHANNELS 3 Zrotation Yrotation Xrotation
							JOINT LeftHand
							{
								OFFSET 3.483560 -0.000000 -0.000000
								CHANNELS 3 Zrotation Yrotation Xrotation
								JOINT LeftFingerBase
								{
									OFFSET 0.000000 0.000000 0.000000
									CHANNELS 3 Zrotation Yrotation Xrotation
									JOINT LeftHandIndex1
									{
										OFFSET 0.715260 -0.000000 -0.000000
										CHANNELS 3 Zrotation Yrotation Xrotation
										End Site
										{
											OFFSET 0.000000 0.000000 0.000000
										}
									}
								}
								JOINT LThumb
								{
									OFFSET 0.000000 0.000000 0.000000
									CHANNELS 3 Zrotation Yrotation Xrotation
									End Site
									{
										OFFSET 0.000000 0.000000 0.000000
									}
								}
							}
						}
					}
				}
				JOINT RightShoulder
				{
					OFFSET 0.000000 0.000000 0.000000
					CHANNELS 3 Zrotation Yrotation Xrotation
					JOINT RightArm
					{
						OFFSET -3.136600 1.374050 -0.404650
						CHANNELS 3 Zrotation Yrotation Xrotation
						JOINT RightForeArm
						{
							OFFSET -5.241900 -0.000000 -0.000000
							CHANNELS 3 Zrotation Yrotation Xrotation
							JOINT RightHand
							{
								OFFSET -3.444170 -0.000000 -0.000000
								CHANNELS 3 Zrotation Yrotation Xrotation
								JOINT RightFingerBase
								{
									OFFSET 0.000000 0.000000 0.000000
									CHANNELS 3 Zrotation Yrotation Xrotation
									JOINT RightHandIndex1
									{
										OFFSET -0.622530 -0.000000 -0.000000
										CHANNELS 3 Zrotation Yrotation Xrotation
										End Site
										{
											OFFSET 0.000000 0.000000 0.000000
										}
									}
								}
								JOINT RThumb
								{
									OFFSET 0.000000 0.000000 0.000000
									CHANNELS 3 Zrotation Yrotation Xrotation
									End Site
									{
										OFFSET 0.000000 0.000000 0.000000
									}
								}
							}
						}
					}
				}
			}
		}
	}
}
MOTION
Frames: 4
Frame Time: 0.008333
0.563606 18.410114 9.891024 -9.369566 17.888785 11.229300 7.007205 4.803703 -2.723628 -15.785140 -44.055863 13.824358 -3.236791 -2.044670 -3.933628 -11.864030 37.217523 -6.575997 0.381500 -3.966900 -10.983500 0.366808 -4.360007 -0.075640 26.765577 25.002900 5.265065 4.195122 -0.089101 2.054624 11.028949 -34.279995 -20.499864 -1.192100 -6.928400 19.503500 -0.807523 2.281955 5.607341 19.434954 8.719125 -31.238637 -7.302884 -0.754422 -9.248320 -8.203376 -0.124734 -11.850584 11.984822 -2.668316 43.137589 3.449300 1.330000 12.185000 -5.795182 -7.945183 4.048462 -38.441096 -37.215265 15.534952 155.136556 -29.537315 -114.598222 -0.072018 -0.612966 -54.046928 -0.286593 -7.149288 -0.030100 -7.125000 0.000000 0.000000 -19.226900 23.169400 10.707900 9.124465 8.837467 3.381815 76.313987 -17.508905 -5.087535 -12.672037 18.252634 -2.723820 0.984971 1.451371 42.858480 5.835718 -29.728520 -3.192600 7.125000 0.000000 0.000000 40.667500 -56.513800 -12.960000 
0.561605 18.409903 9.895132 -9.335110 17.760219 11.295634 7.003704 4.808285 -2.719350 -15.793659 -44.055976 13.830863 -3.238250 -2.054949 -3.964127 -11.904776 37.321700 -6.626444 0.387500 -3.997500 -11.069700 0.365076 -4.355605 -0.086654 26.730346 25.068359 5.240013 4.191626 -0.094508 2.053530 11.063928 -34.338350 -20.378898 -1.150000 -6.809200 19.151200 -0.876167 2.285988 5.573873 19.410614 8.722140 -31.264034 -7.259917 -0.745312 -9.226762 -8.244671 -0.164160 -11.885067 12.004290 -2.720875 43.108588 3.453000 1.300300 12.185400 -5.788134 -7.951347 4.047640 -38.481169 -37.271824 15.625913 155.149848 -29.516284 -114.603656 -0.069301 -0.621065 -53.950174 -0.111251 -7.167849 -0.051600 -7.125000 0.000000 0.000000 -19.099600 23.159700 10.633000 9.124700 8.836581 3.380344 76.345491 -17.533811 -5.022429 -12.714168 18.307437 -2.738955 0.979685 1.454766 42.804363 5.873311 -29.688697 -3.211000 7.125000 0.000000 0.000000 40.667900 -56.473300 -12.918100 
0.560762 18.409482 9.897660 -9.342496 17.626100 11.341911 7.009342 4.811573 -2.716615 -15.811512 -44.103706 13.889513 -3.241299 -2.064392 -3.984467 -11.971048 37.474259 -6.777845 0.388200 -4.000900 -11.079200 0.371489 -4.350037 -0.091893 26.706854 25.052127 5.161593 4.184342 -0.111552 2.078821 11.080912 -34.340869 -20.175765 -1.109600 -6.692300 18.807000 -0.934751 2.303903 5.543766 19.478128 8.763079 -31.272485 -7.252566 -0.735525 -9.198599 -8.186312 -0.161851 -11.799960 11.879965 -2.685150 42.969930 3.403000 1.293200 12.135400 -5.790598 -7.963164 4.041445 -38.617182 -37.355916 15.775427 155.136936 -29.498863 -114.605281 -0.066112 -0.623127 -53.834503 -0.046110 -7.108114 -0.058700 -7.125000 0.000000 0.000000 -19.063500 23.220900 10.581900 9.101334 8.836306 3.376736 76.343030 -17.572556 -4.931199 -12.736013 18.340994 -2.748308 0.975725 1.459080 42.708314 5.910791 -29.672512 -3.230900 7.125000 0.000000 0.000000 40.690500 -56.452900 -12.905900 
0.562237 18.409482 9.899662 -9.402952 17.523976 11.329867 7.023254 4.815071 -2.717957 -15.855163 -44.193344 14.044684 -3.245074 -2.071049 -3.993580 -12.044184 37.637194 -6.955393 0.384900 -3.984200 -11.032100 0.382213 -4.352909 -0.088158 26.747458 25.020932 5.138395 4.179015 -0.122067 2.099244 11.058024 -34.269197 -20.053253 -1.100200 -6.665100 18.726800 -0.939187 2.319388 5.537167 19.621270 8.819004 -31.282660 -7.303896 -0.737216 -9.171195 -8.126613 -0.122433 -11.536884 11.798065 -2.630882 42.728891 3.355300 1.299300 12.029200 -5.792938 -7.980993 4.036117 -38.808024 -37.405648 15.950066 155.103475 -29.488792 -114.600890 -0.069926 -0.623307 -53.771319 -0.089365 -7.144688 -0.054200 -7.125000 0.000000 0.000000 -19.086900 23.184000 10.613800 9.064966 8.833352 3.367046 76.343312 -17.650875 -4.868705 -12.741194 18.353345 -2.753201 0.976471 1.466270 42.634486 6.005746 -29.764727 -3.291100 7.125000 0.000000 0.000000 40.870300 -56.509000 -13.036100 
